<svg width="20" height="20" viewBox="0 0 20 20" fill="none" xmlns="http://www.w3.org/2000/svg">
<path d="M9.16839 1.66669H7.50173C3.33506 1.66669 1.6684 3.33336 1.6684 7.50003V12.5C1.6684 16.6667 3.33506 18.3334 7.50173 18.3334H12.5017C16.6684 18.3334 18.3351 16.6667 18.3351 12.5V10.8334" stroke="#00AB4F" stroke-width="1.5" stroke-linecap="round" stroke-linejoin="round"/>
<path d="M13.3653 2.51668L6.79862 9.08335C6.54862 9.33335 6.29862 9.82502 6.24862 10.1833L5.89028 12.6917C5.75695 13.6 6.39862 14.2333 7.30695 14.1083L9.81528 13.75C10.1653 13.7 10.657 13.45 10.9153 13.2L17.4819 6.63335C18.6153 5.50002 19.1486 4.18335 17.4819 2.51668C15.8153 0.850016 14.4986 1.38335 13.3653 2.51668Z" stroke="#00AB4F" stroke-width="1.5" stroke-miterlimit="10" stroke-linecap="round" stroke-linejoin="round"/>
<path d="M12.426 3.45835C12.9843 5.45001 14.5426 7.00835 16.5426 7.57501" stroke="#00AB4F" stroke-width="1.5" stroke-miterlimit="10" stroke-linecap="round" stroke-linejoin="round"/>
</svg>
